<svg width="20" height="20" viewBox="0 0 20 20"
     xmlns="http://www.w3.org/2000/svg">
  <path fill-rule="nonzero" d="
    M6.5 17
    C6.09 17 5.73 16.85 5.44 16.56
    C5.15 16.27 5 15.91 5 15.5
    L5 5.5
    L4 5.5
    L4 4
    L8 4
    L8 3
    L12 3
    L12 4
    L16 4
    L16 5.5
    L15 5.5
    L15 15.49
    C15 15.91 14.85 16.27 14.56 16.56
    C14.27 16.86 13.91 17 13.5 17
    Z
    M13.5 5.5
    L6.5 5.5
    L6.5 15.5
    L13.5 15.5
    Z
    M8 14
    L9.5 14
    L9.5 7
    L8 7
    Z
    M10.5 14
    L12 14
    L12 7
    L10.5 7
    Z
    M6.5 5.5
    L6.5 15.5
    Z
    M6.5 5.5
    Z" />
    </svg>